<svg xmlns="http://www.w3.org/2000/svg" xmlns:xlink="http://www.w3.org/1999/xlink" version="1.1" x="0px" y="0px" viewBox="-346 256 100 125" enable-background="new -346 256 100 100" xml:space="preserve"><g><path d="M-329.225,294.331c-6.652-3.938-8.843-12.515-4.912-19.152c3.938-6.647,12.51-8.846,19.161-4.908   c6.637,3.934,8.836,12.51,4.898,19.157C-314.009,296.066-322.588,298.264-329.225,294.331z"/><g><path d="M-267.697,278.607c-10.849,3.094-35.101,3.848-35.101,3.848v10.121c0,0,24.649,0.603,35.101,3.848    c9.477,2.941,21.103,11.538,21.103,11.538v-40.892C-246.595,267.069-258.156,275.886-267.697,278.607z"/></g><path d="M-280.006,298.812c-3.406-1.494-7.369,0.061-8.858,3.467l-7.431,16.984c0,0-21.845-17.526-22.724-18.144   c-3.205-2.519-9.819-3.579-14.725-0.088c-11.99,8.954-13.108,32.15-9.444,47.956h39.273l-4.94-18.064l-13.126-9.309   c-0.536-0.381-1.105-1.231-0.501-2.066c0.482-0.668,1.507-0.597,2.041-0.223l23.04,16.278c1.113,0.746,2.407,1.159,3.733,1.159   c0.53,0,1.066-0.062,1.593-0.19c2.039-0.498,3.729-1.918,4.569-3.84l10.965-25.063C-275.052,304.266-276.603,300.3-280.006,298.812   z"/></g><text x="-346" y="371" fill="#000000" font-size="5px" font-weight="bold" font-family="'Helvetica Neue', Helvetica, Arial-Unicode, Arial, Sans-serif">Created by Luis Prado</text><text x="-346" y="376" fill="#000000" font-size="5px" font-weight="bold" font-family="'Helvetica Neue', Helvetica, Arial-Unicode, Arial, Sans-serif">from the Noun Project</text></svg>